/* XPM */
static char *rainbow[] = {
/* columns rows colors chars-per-pixel */
"32 32 256 2",
"   c #023C04",
".  c #02012D",
"X  c #02023C",
"o  c #010135",
"O  c #640103",
"+  c #6A0208",
"@  c #7A0207",
"#  c #750418",
"$  c #770122",
"%  c #094B09",
"&  c #08520A",
"*  c #17510A",
"=  c #255B0E",
"-  c #106C10",
";  c #366D12",
":  c #4A6D03",
">  c #446403",
",  c #4E780B",
"<  c #627D04",
"1  c #020245",
"2  c #01024C",
"3  c #150548",
"4  c #010253",
"5  c #06025A",
"6  c #140157",
"7  c #270A5B",
"8  c #33105B",
"9  c #030A62",
"0  c #060966",
"q  c #140165",
"w  c #19026B",
"e  c #04126E",
"r  c #05186E",
"t  c #1E0270",
"y  c #051A74",
"u  c #260367",
"i  c #3D1267",
"p  c #2C0576",
"a  c #390D72",
"s  c #05247D",
"d  c #5A024D",
"f  c #570453",
"g  c #5C045A",
"h  c #680257",
"j  c #75005E",
"k  c #61004D",
"l  c #5D016C",
"z  c #5D0362",
"x  c #46156C",
"c  c #5C0572",
"v  c #5B0973",
"b  c #570E74",
"n  c #541373",
"m  c #581B7B",
"M  c #4F1571",
"N  c #610468",
"B  c #780263",
"V  c #86010B",
"C  c #8C010B",
"Z  c #9B0302",
"A  c #96050D",
"S  c #980306",
"D  c #880317",
"F  c #960616",
"G  c #A2060E",
"H  c #AA0805",
"J  c #B30503",
"K  c #BB0707",
"L  c #AC1703",
"P  c #B91804",
"I  c #A70414",
"U  c #BA0614",
"Y  c #B80518",
"T  c #BC2104",
"R  c #84012A",
"E  c #87052A",
"W  c #9C0325",
"Q  c #9B052A",
"!  c #8A0132",
"~  c #970236",
"^  c #A4042B",
"/  c #A80627",
"(  c #B6082A",
")  c #A90536",
"_  c #B40535",
"`  c #B9063B",
"'  c #B0162A",
"]  c #CC0404",
"[  c #C40A03",
"{  c #C80607",
"}  c #DB0103",
"|  c #D6070A",
" . c #C21505",
".. c #C81907",
"X. c #D6160A",
"o. c #C30516",
"O. c #CB031A",
"+. c #CA0A1A",
"@. c #C50619",
"#. c #DD061A",
"$. c #DB081B",
"%. c #D70617",
"&. c #DC1310",
"*. c #D41612",
"=. c #E1020E",
"-. c #E20515",
";. c #E10519",
":. c #E3091B",
">. c #E50A18",
",. c #EA1916",
"<. c #EC1E1B",
"1. c #E21814",
"2. c #C72605",
"3. c #D72704",
"4. c #DA3906",
"5. c #D1310F",
"6. c #E33506",
"7. c #E6221C",
"8. c #E02C04",
"9. c #CB0826",
"0. c #D80825",
"q. c #DA1027",
"w. c #C3073B",
"e. c #DC0936",
"r. c #CC193B",
"t. c #E50B29",
"y. c #E81429",
"u. c #E50636",
"i. c #E91C36",
"p. c #EA2C27",
"a. c #EB342C",
"s. c #EB2139",
"d. c #EA3F36",
"f. c #98790C",
"g. c #8F730B",
"h. c #DC4706",
"j. c #D95007",
"k. c #EC5809",
"l. c #E34908",
"z. c #EF6609",
"x. c #F76A11",
"c. c #F67915",
"v. c #F06E0E",
"b. c #EE473D",
"n. c #9A0247",
"m. c #9B0150",
"M. c #A7034A",
"N. c #BD024A",
"B. c #B80445",
"V. c #AA0157",
"C. c #B5035B",
"Z. c #B70355",
"A. c #BA1143",
"S. c #85026A",
"D. c #9B0576",
"F. c #900471",
"G. c #AC0363",
"H. c #B5046A",
"J. c #A70C7B",
"K. c #BA0E7B",
"L. c #B70A75",
"P. c #BA127F",
"I. c #CD0A45",
"U. c #C5054A",
"Y. c #D60C4B",
"T. c #C80456",
"R. c #D5035C",
"E. c #DF1457",
"W. c #D21646",
"Q. c #EA1448",
"!. c #E81455",
"~. c #E80E4C",
"^. c #ED2B42",
"/. c #EA2C5A",
"(. c #F02A50",
"). c #CA0565",
"_. c #C5016B",
"`. c #CB0469",
"'. c #C40662",
"]. c #D2056C",
"[. c #DA0665",
"{. c #DB057A",
"}. c #E6046C",
"|. c #EC1566",
" X c #ED0371",
".X c #EA0A76",
"XX c #F20577",
"oX c #F11768",
"OX c #D7304F",
"+X c #F04D45",
"@X c #0C831C",
"#X c #12911E",
"$X c #2B991E",
"%X c #2EA926",
"&X c #5C9112",
"*X c #72920A",
"=X c #78AE16",
"-X c #7FC22C",
";X c #9D810D",
":X c #849F06",
">X c #A4840C",
",X c #B38C0C",
"<X c #B8980A",
"1X c #AC910C",
"2X c #90B00E",
"3X c #BEA40B",
"4X c #C69A0B",
"5X c #F7831C",
"6X c #C8A50C",
"7X c #DAA80C",
"8X c #CCB40A",
"9X c #D2BA09",
"0X c #ECB216",
"qX c #F7B919",
"wX c #E5AE10",
"eX c #FB8A26",
"rX c #F99529",
"tX c #FA9C31",
"yX c #F6B627",
"uX c #FAA835",
"iX c #F9B335",
"pX c #F7B638",
"aX c #F9A329",
"sX c #8ECC1C",
"dX c #B3C70F",
"fX c #97DA27",
"gX c #86C92A",
"hX c #D9C209",
"jX c #DEC908",
"kX c #C9D812",
"lX c #D8DE10",
"zX c #CBD60F",
"xX c #E2CE07",
"cX c #E6DC0B",
"vX c #E7D907",
"bX c #D8E113",
"nX c #E6E10C",
"mX c #E2E310",
"MX c #FAAA44",
"NX c #FAB641",
"BX c #063381",
"VX c #05378B",
"CX c #043995",
"ZX c #042C85",
"AX c #07589C",
"SX c #064B94",
"DX c #0443A2",
"FX c #055CA5",
"GX c #0569B3",
"HX c #087FC2",
"JX c #9D0780",
"KX c #AA0A85",
"LX c #B41384",
"PX c #B81584",
"IX c #B80F81",
"UX c #0881C5",
/* pixels */
"AXUXFXFXFXVXCXVXy e 2 2 . o 5 p a m v N h JXKXK._.{.{.B. XR.) |.",
"HXFXGXFXBXCXCXy 9 2 2 . X 6 p a m v l B KXIXIX_.{.{.N. XU._ |.) ",
"AXGXFXBXCXVXe 9 4 1 o 2 w p a m c g B KXPXK._.{.).N. XU._ |.E O ",
"GXSXBXDXZXe 9 4 1 o 2 w p i n c g B KXLXL._.{.T.U..XB.w.|.# @ o.",
"VXVXDXZXe 9 5 X o 4 t u i n l g B KXPXH.`..XN.T..X` W.E.+ C O.o.",
"CXDXs e 0 5 o 1 5 t u x b l g S.KXPXH.`.{.B.R. X) W.T.O G O.U s.",
"DXs e 9 4 o 1 5 t u x c l d F.LXPXC.`.].M.[.}.^ ~.A.O Y +.@.s.^.",
"y e 0 4 X 2 q t 7 M c g g D.LXK.H.].).) }.R./ !.) + @.o.+.s.^.y.",
"e 9 2 o 4 q q 7 M c g h D.LXL.C.`.T.)  XT.^ !.E @ O.o.+.s.s.>.| ",
"9 1 1 4 q w 7 n l f h D.PXH.V.].Z.M.XXU._ E.D C 0.U q.i.s.=.1.+X",
"X 2 5 q 6 8 n N f j J.LXH.V.].M.B. X` _ Y.# I 0.U q.i.y.} <.b.X.",
"4 5 q 6 8 b N f j J.IXG.V.].~ B.XX) B.I.@ o.$.U q.y.y.=.p.d...X.",
"5 q 3 8 v N d B J.K.V.C.`.~ T. X^ w.w.@ 9.O.U q.y.>.] a.p.[ X.P ",
"q 3 x b N f S.J.K.V.C.'.R R.}.W I.) C 0.@.U t.t.>.} a.7.[ ..L 4.",
"3 x v N d S.P.L.m.'.Z.R [.[.W I.W A u.Y o.q.t.=.| a.*.[ ..L j.eX",
"M l h d F.P.H.m.'.M.R  XT.^ Y.F I u.Y @.0.>.} &.p.*. ...L h.eXMX",
"v h k F.LXH.n.`.n.! XXB.^ I.D Y u.I @.$.>.} &.p.[  .P T k.eXMXNX",
"g k D.P.G.M.`.! ~ XX_ _ w.V 9.e.G O.#.>.| &.7.K  .P 2.x.rXMXNXyX",
"j J.K.V.M.'.$ M.XX) ` ` V e.0.I +.#.=.] 1.1.K  .P 5.x.eXMXpX0X<X",
"J.K.m.Z.H.$ Z..X^ ` ^ C u.9.G O.;.} ] <.&.J  .P 4.c.rXiXpX0X,Xg.",
"L.n.C.C.# '.|.W w.W A ~.( G +.-.| ] <.X.H  .2.l.x.rXpXiXwX>Xg.8X",
"n.C.M.$ ].[.Q w.F I Q.I I O.-.] | <. .H  .2.l.c.tXNXyX7Xf.;X8XvX",
"`.n.$ .XU.^ w.D ( Q.I I %.-.] | <.K H  .2.k.c.tXNXyX6Xf.>XhXcXbX",
"E ! .XA.^ ` V 9.Q.F Y :.| ] &.,.J H ..3.k.c.tXpXyX4Xg.<XjXvXlX2X",
"n..X) ) _ V e.W.F U ;.| { &.1.H J ..4.k.5XuXpX0X<Xf.3XjXnXlX*X> ",
"|.) _ ^ A ~.r.A @.;.%.{ ,.| Z P 3.h.k.5XuXiX0X,Xf.6XjXmXkX*X: sX",
"~ ` F I Q.r.A +.:.{ { ,.{ Z P 3.h.z.5XiXiX0X>X>X9XxXnXkX< , sX&X",
"A.F / (.' A %.:.{ { ,.[ S ..4.4.z.eXiXyXwX>X1XhXvXnXdX< &XfX, % ",
"V ( /.' A $.>.K | <.H Z ..6.l.v.rXiXyXwXf.3XjXvXcXdX: &XfX; % $X",
"r./.F G $.#.K &.&.H Z 3.6.h.v.rXyXqX7Xf.6XxXcXbX2X: =XfX= & %X#X",
"OXF Y :.%.K &.&.Z H 8.4.j.c.tXiXqX6X>X8XxXnXbX:X: 2XgX* - %X@X% ",
"V U :.+.K &.{ S J 6.h.j.5XaXpXqX6X>XhXxXcXzX:X, sX-X% - %X@X& - "
};
